<?xml version="1.0" encoding="utf-8"?>
<!-- Generator: Adobe Illustrator 26.0.1, SVG Export Plug-In . SVG Version: 6.00 Build 0)  -->
<svg version="1.1" id="Layer_1" xmlns="http://www.w3.org/2000/svg" xmlns:xlink="http://www.w3.org/1999/xlink" x="0px" y="0px"
	 viewBox="0 0 79 81.6" style="enable-background:new 0 0 79 81.6;" xml:space="preserve">
<style type="text/css">
	.st0{fill:none;stroke:#51BFB3;stroke-width:1.5;stroke-miterlimit:10;}
</style>
<g id="Group_3014" transform="translate(-703.11 -384.7)">
	<path id="Path_11655" class="st0" d="M737.3,392.2c-8,16.9-8.4,38-5.1,58.6c0.9,5.2,2.7,11.5,7.4,13.9c2.1,1,4.4,1.1,6.6,0.5
		c7.7-2.1,11.2-10.7,12.9-19c3.6-17.6,1.8-38.4-9.6-54.9c-1.7-2.4-3.7-4.9-6.3-5.6c-3.4-0.9-6.2,1.5-8.5,3.8"/>
	<path id="Path_11656" class="st0" d="M708.6,421.2c16.1,16.5,38.4,25.7,58.4,23.8c3.4-0.3,6.9-1,9.7-2.8c3-1.9,4.8-5.2,4.7-8.7
		c-0.2-5.8-5.2-10.9-10.2-14.3c-11.2-7.5-24-10.1-36.2-11c-8.5-0.6-17.1-0.4-24.4,2.8c-2.1,0.8-3.9,2.1-5.3,3.9
		c-1.4,2-1.7,4.6-0.8,6.9"/>
	<path id="Path_11657" class="st0" d="M710.7,446.9c10.6-14.6,21.4-28.9,33.7-41.8c6.1-6.4,12.5-12.4,20.3-16.5
		c3.1-1.6,7.4-2.7,10.5,0.1c3.2,2.9,2.8,7.8,1.6,11.4c-1.9,5.8-5.2,10.7-8.6,15.5c-11.8,16.8-25.3,32.6-43.6,41.4
		c-3.9,1.9-9,3.3-13.1,0.2c-0.8-0.6-1.5-1.4-1.8-2.4c-0.2-1.2,0-2.4,0.6-3.4c1.8-3.8,4-7.5,6.5-10.9"/>
	<path id="Path_11658" class="st0" d="M742.8,422.9c-1.1,1-1.2,3.1,0,4.6c1,1.4,2.9,1.9,4.4,1.1c1.3-1.1,1.7-2.9,0.9-4.4
		c-0.3-0.7-0.8-1.2-1.4-1.5c-0.4-0.2-0.9-0.3-1.3-0.2c-1.7,0-3.3,0.9-4.3,2.3"/>
	<path id="Path_11659" class="st0" d="M704.5,421.3c-0.3,1.9,0.9,3.8,2.7,4.4c1.4,0.3,2.8-0.5,3.1-1.9c0.1-0.3,0.1-0.6,0-1
		c-0.2-1.9-2.2-3.6-3.9-3.4s-2.6,2.3-1.8,4.1"/>
	<path id="Path_11660" class="st0" d="M721.8,456.4c-0.4,1.3-0.1,2.7,0.8,3.7c0.8,1,2.1,1.6,3.5,1.4c1.1-0.2,2-1.2,1.9-2.4
		c-0.1-1.3-1-2.4-2.3-2.6c-0.9,0-1.6,0.8-1.6,1.6c0,0.3,0.1,0.6,0.2,0.8"/>
	<path id="Path_11661" class="st0" d="M773.4,404c-1.6,1.8-0.4,5,1.1,7.4c0.7,1.1,1.6,2.4,2.8,2.5c1,0,1.8-0.7,2-1.6
		c0.2-1,0.2-2,0-3c0-1.4-0.5-2.7-1.5-3.7c-0.8-0.7-1.9-0.9-2.9-0.5c-0.9,0.4-1.6,1-2.3,1.7"/>
	<path id="Path_11662" class="st0" d="M736.2,388.1c-1,0.1-1.8,0.9-1.9,1.9c-0.1,1.1,0,2.2,0.4,3.2c0.6,1.8,2,3.9,3.7,3.7
		c1.1-0.2,1.6-1.3,1.8-2.4c0.2-1.7,0-3.4-0.8-5c-0.2-0.7-0.8-1.3-1.4-1.6c-0.4-0.1-0.9-0.1-1.3,0.2c-2.1,1.1-2.4,4-2.6,6.6"/>
	<path id="Path_11663" class="st0" d="M752.5,454c-0.1,3.6,2.1,6.9,5.4,8.1c1.7,0.5,3.6,0.2,4.1-1.4c0.2-0.8,0.2-1.6,0-2.4
		c-0.3-1.6-0.9-3.1-1.8-4.4c-0.9-1.3-2.4-2-3.9-2.1c-1.4,0.2-2.6,1.4-2.8,2.8c-0.2,1.6,0,3.2,0.6,4.7"/>
</g>
</svg>
