<?xml version="1.0" encoding="utf-8"?>
<!-- Generator: Adobe Illustrator 26.0.1, SVG Export Plug-In . SVG Version: 6.00 Build 0)  -->
<svg version="1.1" id="Layer_1" xmlns="http://www.w3.org/2000/svg" xmlns:xlink="http://www.w3.org/1999/xlink" x="0px" y="0px"
	 viewBox="0 0 72.3 62.7" style="enable-background:new 0 0 72.3 62.7;" xml:space="preserve">
<style type="text/css">
	.st0{fill:none;stroke:#51BFB3;stroke-width:1.5;stroke-miterlimit:10;}
</style>
<g id="Group_3062" transform="translate(162.866 -1023.76) rotate(-45)">
	<g id="Group_2999" transform="translate(-851.738 619.35)">
		<path id="Path_11535" class="st0" d="M5.6,12l7.2,48.2"/>
		<path id="Path_11536" class="st0" d="M17.6,10.1c2.7,15.5,5.4,30.9,8.1,46.4"/>
		<path id="Path_11537" class="st0" d="M1.9,11.9c-0.5,0.3-0.9,0.7-1.1,1.3c6.1-0.5,12.1-1.4,18.1-2.5c1.4-0.2,2.7-0.6,4-1.2
			c-0.5-1.6-1-3.2-1.6-4.7l-20,2.1c-0.4,0-0.7,0.1-1,0.4C0.1,7.5,0,7.8,0,8.1C-0.1,10,0.3,12,1.3,13.6"/>
		<path id="Path_11538" class="st0" d="M4.2,5.8c-0.1-1.3-0.3-2.7-0.5-4c1.1,0.4,2.4,0.4,3.5-0.1c3.1-0.8,6.2-1.4,9.4-1.7
			c0.2,1.7,0.3,3.3,0.5,5"/>
		<path id="Path_11539" class="st0" d="M23.1,7l1.8-0.7c0.3-0.2,0.6-0.2,0.9,0.1c0.1,0.1,0.2,0.3,0.1,0.5c1.6,10.2,1.8,20.5,2,30.8
			c-0.7,0.5-1.6,0.7-2.5,0.5l-1-7.8c0.7,0.1,1.5-0.2,2-0.7"/>
		<path id="Path_11540" class="st0" d="M12.7,60.8c2.7,2.2,6.2,3,9.6,2.1c1.3-0.4,2.7-1.2,3-2.5c0.3-1.5-0.9-3.1-0.6-4.6"/>
		<path id="Path_11541" class="st0" d="M12.7,62.3c2.4,5.1,5.5,9.8,9.2,14c0.1,0.2,0.3,0.3,0.5,0.4c0.6,0.2,1-0.6,1.1-1.2
			c1.1-5.4,1.9-10.8,2.6-16.2"/>
	</g>
	<path id="Path_11787" class="st0" d="M-850.1,648.2c1.1,4.9,2.2,9.8,3.2,14.8"/>
	<path id="Path_11788" class="st0" d="M-844.6,674.8c0,1.6,0.3,3.2,0.7,4.7"/>
	<path id="Path_11861" class="st0" d="M-842,632.7l-0.9,6.7"/>
	<path id="Path_11862" class="st0" d="M-837,630.5c-2,6.5-3.5,13-4.7,19.7"/>
	<path id="Path_11863" class="st0" d="M-834.9,633.9c-0.6,6.4-1.8,12.8-3.5,19"/>
	<path id="Path_11864" class="st0" d="M-831.9,641.9l-0.3,3.7"/>
</g>
</svg>
