<?xml version="1.0" encoding="utf-8"?>
<!-- Generator: Adobe Illustrator 26.0.1, SVG Export Plug-In . SVG Version: 6.00 Build 0)  -->
<svg version="1.1" id="Layer_1" xmlns="http://www.w3.org/2000/svg" xmlns:xlink="http://www.w3.org/1999/xlink" x="0px" y="0px"
	 viewBox="0 0 73.3 184.2" style="enable-background:new 0 0 73.3 184.2;" xml:space="preserve">
<style type="text/css">
	.st0{fill:none;stroke:#51BFB3;stroke-width:1.5;stroke-miterlimit:10;}
	.st1{fill:none;stroke:#51BFB3;stroke-width:1.5;stroke-linecap:round;stroke-miterlimit:10;stroke-dasharray:9.738;}
</style>
<g id="Group_3058" transform="translate(1398.54 -546.961)">
	<g id="Group_3019" transform="translate(-1395.751 547.699)">
		<path id="Path_11717" class="st0" d="M62.4,14l-14.7,4.2"/>
		<path id="Path_11718" class="st0" d="M47.2,18L12.5,5.7l27.6,17.4"/>
		<path id="Path_11719" class="st0" d="M62.8,12.4C42.4,7.9,21.9,3.7,1.3,0"/>
		<path id="Path_11720" class="st0" d="M40.2,23.6c-5.7,0.3-11.3,0.7-17,1.4"/>
		<path id="Path_11721" class="st0" d="M0,0.2c7.9,9.2,16.3,17.9,25.2,26.1"/>
		<path id="Path_11722" class="st0" d="M48.8,19.1c-0.1,5.2,0.1,10.4,0.7,15.6"/>
		<path id="Path_11723" class="st0" d="M40.9,23.1L49,35"/>
		<path id="Path_11724" class="st0" d="M48.6,35c-4.8-3.9-9.9-7.5-15-11"/>
	</g>
	<path id="Path_11750" class="st1" d="M-1345.5,588c12.3,5.3,17.9,19.5,12.6,31.8c-0.4,1-1,2-1.5,3c-4,6.6-11,10.9-18,14.1
		c-7.8,3.6-16.5,6.2-24.9,4.3c-8.4-1.9-15.9-9.6-15.1-18.1c0.1-2.4,1.3-4.7,3.1-6.3c3.3-2.5,8-1.4,11.9,0.2
		c16.3,6.6,29.9,19,39.8,33.5c4.3,6.2,7.9,13,9.9,20.3c6.1,22.8-5.4,46.7-27.1,56.2c-8.2,3.6-17.8,4.7-26,1.2
		c-8.2-3.5-14.4-12.4-13-21.2"/>
	<path id="Path_11811" class="st0" d="M-1397.9,550c2,2.9,4.2,5.7,6.6,8.4"/>
	<path id="Path_11812" class="st0" d="M-1388.4,563.6l4.5,5.7"/>
	<path id="Path_11937" class="st0" d="M-1372.1,556.7c0.6,1.6,1.4,3.2,2.3,4.6"/>
	<path id="Path_11938" class="st0" d="M-1368,559.3c0.7,2.5,1.6,5,2.6,7.4"/>
	<path id="Path_11939" class="st0" d="M-1365.3,560.1c1.2,2.8,2.3,5.5,3.5,8.3"/>
	<path id="Path_11940" class="st0" d="M-1360.5,562.7c1.1,2.1,2.1,4.2,3,6.4"/>
	<path id="Path_11941" class="st0" d="M-1357.3,563.5c1.1,4.1,2.3,8.2,3.6,12.3"/>
	<path id="Path_11942" class="st0" d="M-1354.9,564.5c0.2-0.2,0.4,0.1,0.5,0.3c1.1,3.8,2.2,7.7,3.2,11.5"/>
	<path id="Path_11943" class="st0" d="M-1351.2,565.5c0.6,3.6,1.7,7.2,3.1,10.6"/>
</g>
</svg>
