<?xml version="1.0" encoding="utf-8"?>
<!-- Generator: Adobe Illustrator 26.0.1, SVG Export Plug-In . SVG Version: 6.00 Build 0)  -->
<svg version="1.1" id="Layer_1" xmlns="http://www.w3.org/2000/svg" xmlns:xlink="http://www.w3.org/1999/xlink" x="0px" y="0px"
	 viewBox="0 0 63.4 64.7" style="enable-background:new 0 0 63.4 64.7;" xml:space="preserve">
<style type="text/css">
	.st0{fill:none;stroke:#51BFB3;stroke-width:1.5;stroke-miterlimit:10;}
</style>
<g id="Group_3056" transform="translate(1300.973 -625.435)">
	<g id="Group_3015" transform="translate(-1300.223 625.922)">
		<path id="Path_11664" class="st0" d="M17.8,0c-4.5,5.3-6.3,12.4-4.9,19.2c1.4,6.7,4.8,13.4,15,16.4c15.4,4.5,20.3-6.2,25.6-21.7"
			/>
		<path id="Path_11665" class="st0" d="M15.3,3.9c-5.6-2-8.7-2.3-11.4-0.2c-1,0.8-1.8,1.9-2.4,3.1C0,9.3-1.6,16.9,3.2,19.2
			c3.1,1.6,6.5,2.3,10,2.2"/>
		<path id="Path_11666" class="st0" d="M21.5,33.5c-1,1-1.7,2.4-1.8,3.8c0,0.3,0,0.7,0.1,1c0.2,0.3,0.5,0.6,0.8,0.8
			c2,1.3,4.3,2.1,6.7,2.4c1.4,0.3,2.9,0,4.2-0.8c1.1-0.9,1.5-2.9,0.3-3.8"/>
		<path id="Path_11667" class="st0" d="M22.2,40.3c-0.6,2.8-1.6,5.5-3,8c-1.2,2.2-3.1,4-5.5,5.1c-0.9,0.5-1.9,0.5-2.8,0"/>
		<path id="Path_11668" class="st0" d="M26.8,41.7c-1.8,4.7-2.2,9.9-1.1,14.8c0.1,0.6,0.4,1.1,0.7,1.6c0.4,0.5,0.9,0.8,1.5,0.7"/>
		<path id="Path_11669" class="st0" d="M7.4,52.6c8,2.5,16.7,5.4,24.7,7.9l-1.2,2.3c-0.1,0.3-0.3,0.5-0.5,0.6
			c-0.2,0.1-0.4,0.1-0.6,0c-3.6-1-19.3-6.8-23.2-8.6C6.9,53.9,7,53.6,7.4,52.6"/>
		<path id="Path_11670" class="st0" d="M13.7,5.9c-2-0.5-3.9-1-5.5-0.7C5.6,5.8,3.5,7.8,3,10.4c-0.2,1.1-1.3,4.1,1.3,6.1
			c2.4,1.8,5.5,2.5,8.4,2.1"/>
		<path id="Path_11671" class="st0" d="M52.3,17.6c5.7,1.7,8.4,3.3,9.3,6.6c0.3,1.3,0.4,2.6,0.1,3.9c-0.4,2.9-3.6,10-8.8,9
			c-3.4-0.5-6.6-2-9.3-4.2"/>
		<path id="Path_11672" class="st0" d="M51.4,19.8c1.9,0.7,4.7,1.8,5.8,3c1.8,2,2.2,4.8,1.2,7.2c-0.4,1-1.4,4-4.6,4.1
			c-3,0-5.9-1.2-8.1-3.3"/>
		<path id="Path_11673" class="st0" d="M18.3,0.5C31,4.2,45.1,10.6,53.5,13.8"/>
		<path id="Path_11674" class="st0" d="M31.5,12.5l-6.2,4c-0.2,0.1-0.3,0.2-0.3,0.4c0,0.1,0.1,0.3,0.2,0.4l2.3,2.7
			c0.8-0.6,1.6-1.1,2.5-1.4c-1,2.1-1.7,4.2-2.3,6.4c-1.3-0.8-2.7-1.2-4.2-1.2l-0.5,2.4c-0.1,0.2,0,0.4,0.1,0.4c0,0,0.1,0,0.1,0
			c3.5,1.2,7,2.2,10.5,3l0.6-2c0.1-0.1,0-0.3-0.1-0.3c0,0-0.1,0-0.1,0c-1-0.3-2-0.6-3-0.9c-0.1,0-0.3-0.1-0.4-0.2
			c-0.1-0.2-0.1-0.4,0-0.6c1.1-4.1,2.9-8,3.8-12.1c0.1-0.4,0.1-0.8-0.2-1.1c-0.2-0.1-0.4-0.2-0.6-0.2c-0.8-0.1-1.6-0.1-2.4-0.1"/>
		<path id="Path_11675" class="st0" d="M49.3,16.8c-1.2,3.1-2.7,6.2-4.5,9.1c-1.1,1.8-2.3,3.6-4.3,4.3"/>
		<path id="Path_11676" class="st0" d="M37.1,33c-1.3,0.4-2.6,0.5-3.9,0.3"/>
		<path id="Path_11677" class="st0" d="M29.7,38.2c0.4,0.4,0.3,1,0,1.3c0,0,0,0,0,0c-0.4,0.3-0.9,0.5-1.4,0.5"/>
		<path id="Path_11678" class="st0" d="M23.9,44.5c-0.4,1.3-0.7,2.7-0.9,4c-0.2,1.4,0,2.8,0.5,4.1"/>
	</g>
	<path id="Path_11806" class="st0" d="M-1270.4,627.3c3.8,2.5,7.9,4.5,12.2,5.8"/>
	<path id="Path_11807" class="st0" d="M-1246.9,636.2l2.5,1.7"/>
	<path id="Path_11808" class="st0" d="M-1263.8,664.9c1.5,0.1,2.9-0.3,4.2-1.1"/>
	<path id="Path_11809" class="st0" d="M-1288.3,651.9c0.4,2.7,1.6,5.3,3.5,7.4"/>
	<path id="Path_11810" class="st0" d="M-1283.3,669.7c-0.7,2.4-2.3,4.4-4.5,5.5"/>
	<path id="Path_11898" class="st0" d="M-1282.6,629.2c-1.8,3.1-3.4,6.4-4.8,9.7"/>
	<path id="Path_11899" class="st0" d="M-1281.5,634c-1.9,4-3.7,7.9-5.6,11.9"/>
	<path id="Path_11900" class="st0" d="M-1281.6,641.7l-3.9,10"/>
	<path id="Path_11901" class="st0" d="M-1280.2,644.7l-2.7,8.8"/>
	<path id="Path_11902" class="st0" d="M-1278.3,651.7c-0.7,1.2-1,2.6-0.9,3.9"/>
	<path id="Path_11903" class="st0" d="M-1275.9,653.8l-1.2,4.8"/>
	<path id="Path_11904" class="st0" d="M-1272.6,656.8c-0.5,1-0.9,2.2-0.9,3.3"/>
	<path id="Path_11905" class="st0" d="M-1268,656.8c-0.2,1.1-0.4,2.2-0.6,3.3"/>
	<path id="Path_11906" class="st0" d="M-1266.8,663.2"/>
	<path id="Path_11907" class="st0" d="M-1277.4,659.5l-2.1,2.7"/>
	<path id="Path_11908" class="st0" d="M-1276.7,662c-1,2-2.3,3.8-3.8,5.4"/>
	<path id="Path_11909" class="st0" d="M-1276.8,665.3l-2.4,3.6"/>
</g>
</svg>
