<?xml version="1.0" encoding="utf-8"?>
<!-- Generator: Adobe Illustrator 26.0.1, SVG Export Plug-In . SVG Version: 6.00 Build 0)  -->
<svg version="1.1" id="Layer_1" xmlns="http://www.w3.org/2000/svg" xmlns:xlink="http://www.w3.org/1999/xlink" x="0px" y="0px"
	 viewBox="0 0 58.6 68.6" style="enable-background:new 0 0 58.6 68.6;" xml:space="preserve">
<style type="text/css">
	.st0{fill:none;stroke:#51BFB3;stroke-width:1.5;stroke-miterlimit:10;}
</style>
<g id="Group_3006" transform="translate(-19.278 -289.556)">
	<path id="Path_11588" class="st0" d="M20.3,312.8l26.6,43.9c0.2,0.3,0.4,0.7,0.8,0.7c0.4,0,0.7-0.1,1-0.4
		c9.1-6.4,18.2-12.9,27.2-19.4c1-0.4,1.5-1.5,1.1-2.5c-0.1-0.3-0.3-0.6-0.6-0.8c-10.8-15.2-22.4-29.9-34.7-43.9l-17.2,12.6
		c-0.9,0.6-1.7,1.3-2.2,2.3c-0.4,0.8-0.5,1.7-0.5,2.6l-0.4,6.7"/>
	<path id="Path_11589" class="st0" d="M22.5,304.9c3.7,2.6,7,5.7,9.9,9.2c-4.3-0.4-8.7-0.1-13,0.6"/>
	<path id="Path_11590" class="st0" d="M33.7,307.2l7.1-4.3"/>
	<path id="Path_11591" class="st0" d="M34.3,320l13.6-9.3"/>
	<path id="Path_11592" class="st0" d="M40.4,321.4c2.7-1.4,5.2-3.3,7.4-5.4"/>
	<path id="Path_11593" class="st0" d="M43.6,334.1c4.6-4,9.7-7.4,15.1-10.2"/>
	<path id="Path_11594" class="st0" d="M50.8,334.3l7.7-5.9"/>
	<path id="Path_11595" class="st0" d="M52.6,337.6l7.8-5.7"/>
</g>
</svg>
