<?xml version="1.0" encoding="utf-8"?>
<!-- Generator: Adobe Illustrator 26.0.1, SVG Export Plug-In . SVG Version: 6.00 Build 0)  -->
<svg version="1.1" id="Layer_1" xmlns="http://www.w3.org/2000/svg" xmlns:xlink="http://www.w3.org/1999/xlink" x="0px" y="0px"
	 viewBox="0 0 58.9 64.3" style="enable-background:new 0 0 58.9 64.3;" xml:space="preserve">
<style type="text/css">
	.st0{fill:none;stroke:#51BFB3;stroke-width:1.5;stroke-miterlimit:10;}
</style>
<g id="Group_3008" transform="translate(-321.615 -83.859)">
	<path id="Path_11604" class="st0" d="M350.1,86.1l-27.4,43.4c-0.4,0.4-0.5,1-0.1,1.4c0.1,0.2,0.3,0.3,0.5,0.3
		c9.8,5.3,19.6,10.5,29.5,15.7c0.8,0.7,2,0.7,2.7-0.1c0.2-0.2,0.4-0.5,0.5-0.9c8.8-16.5,16.7-33.4,23.8-50.7l-19-9.8
		c-1.7-1.2-3.9-1.3-5.6-0.3l-6.2,2.6"/>
	<path id="Path_11605" class="st0" d="M358.2,84.5c-0.7,4.5-2,8.8-3.8,12.9c-1.6-4-3.8-7.8-6.4-11.3"/>
	<path id="Path_11606" class="st0" d="M361.1,95.6l7,4.5"/>
	<path id="Path_11607" class="st0" d="M349.9,101.8l14.3,8"/>
	<path id="Path_11608" class="st0" d="M351.4,107.9c2.5,1.8,5.2,3.2,8.1,4.2"/>
	<path id="Path_11609" class="st0" d="M341.4,116.4c5.6,2.3,11,5.3,15.9,9"/>
	<path id="Path_11610" class="st0" d="M344.5,122.9l8.7,4.2"/>
	<path id="Path_11611" class="st0" d="M342.3,126.1l8.6,4.4"/>
</g>
</svg>
